<?xml version="1.0" standalone="no"?>
<!DOCTYPE svg PUBLIC "-//W3C//DTD SVG 20010904//EN"
 "http://www.w3.org/TR/2001/REC-SVG-20010904/DTD/svg10.dtd">
<svg version="1.0" xmlns="http://www.w3.org/2000/svg"
 width="700.000000pt" height="700.000000pt" viewBox="0 0 700.000000 700.000000"
 preserveAspectRatio="xMidYMid meet">
<metadata>
Created by potrace 1.11, written by Peter Selinger 2001-2013
</metadata>
<g transform="translate(0.000000,700.000000) scale(0.100000,-0.100000)"
fill="#000000" stroke="none">
<path d="M2471 6984 c-226 -48 -472 -260 -567 -487 -14 -33 -57 -157 -95 -276
-38 -119 -74 -226 -79 -238 l-10 -23 -382 -1 c-211 0 -392 -2 -403 -3 -11 -2
-44 -6 -74 -10 -76 -11 -195 -51 -271 -92 -306 -166 -524 -493 -577 -866 -10
-66 -11 -3933 -1 -4009 33 -260 147 -495 333 -684 150 -153 292 -233 490 -276
75 -16 249 -17 2660 -18 2771 0 2632 -2 2787 49 92 31 172 76 264 146 240 185
404 476 442 784 9 75 9 3942 0 4005 -69 474 -393 859 -798 950 -98 22 -149 24
-563 25 l-347 0 -10 23 c-5 12 -43 128 -85 257 -103 317 -138 384 -264 511
-122 122 -232 190 -371 228 -70 20 -104 20 -1043 20 -793 0 -984 -3 -1036 -15z
m1966 -227 c104 -10 223 -77 323 -180 85 -89 114 -151 226 -497 57 -179 109
-332 113 -340 7 -13 66 -15 422 -17 494 -1 573 -5 662 -33 300 -93 537 -414
572 -775 9 -90 9 -3803 0 -3870 -21 -164 -51 -263 -112 -373 -128 -230 -323
-382 -544 -422 -48 -9 -712 -12 -2591 -12 -1391 0 -2547 3 -2570 7 -93 13
-146 29 -213 62 -92 46 -150 89 -224 168 -147 158 -230 340 -256 565 -7 57 -8
3823 -1 3870 2 19 8 58 11 85 15 110 79 267 158 385 48 71 186 203 256 244 73
42 182 81 256 91 28 3 257 6 511 6 l460 0 112 342 c123 377 148 431 247 528
105 104 222 163 335 168 30 1 55 3 56 4 5 4 1746 -2 1791 -6z"/>
<path d="M3338 5795 c-2 -1 -39 -5 -83 -9 -44 -3 -107 -10 -140 -15 -33 -5
-78 -12 -100 -16 -22 -3 -87 -17 -145 -31 -865 -203 -1589 -839 -1907 -1674
-42 -111 -98 -293 -109 -354 -3 -16 -7 -32 -9 -35 -2 -4 -6 -25 -9 -47 -4 -22
-9 -51 -11 -64 -5 -23 -9 -51 -20 -140 -22 -169 -23 -539 -1 -645 2 -11 7 -45
10 -75 13 -113 57 -301 106 -455 101 -314 286 -643 514 -915 16 -19 91 -96
166 -171 347 -344 796 -596 1260 -705 74 -17 279 -54 335 -60 149 -16 581 -9
682 10 11 3 43 8 70 12 55 8 54 7 152 29 83 17 212 55 311 90 112 40 170 65
310 134 254 126 475 286 685 496 78 77 152 154 166 170 75 93 101 128 159 210
86 121 186 298 244 430 26 61 51 119 56 130 34 74 119 368 135 465 3 19 10 58
15 85 23 131 31 237 32 435 0 303 -39 561 -131 845 -199 622 -629 1155 -1214
1504 -284 170 -678 305 -1017 347 -30 4 -68 8 -85 11 -37 4 -422 12 -427 8z
m507 -259 c383 -59 665 -165 1009 -379 28 -17 169 -119 182 -132 6 -5 42 -36
80 -67 105 -86 262 -254 357 -380 397 -529 565 -1166 482 -1828 -5 -40 -49
-263 -60 -300 -164 -594 -521 -1092 -1020 -1425 -349 -233 -719 -363 -1165
-411 -61 -6 -366 -6 -410 0 -19 3 -62 8 -95 11 -33 3 -67 8 -75 10 -8 2 -35 6
-60 9 -25 3 -106 21 -180 40 -867 218 -1562 908 -1785 1771 -30 118 -52 229
-61 310 -35 311 -20 614 45 884 32 132 71 259 100 326 5 11 19 45 31 75 64
162 202 394 338 570 86 111 306 330 407 406 44 32 88 66 97 74 67 60 378 230
523 285 125 48 286 98 354 110 19 3 37 8 40 10 4 2 25 6 47 9 22 4 50 8 62 11
27 5 163 23 207 28 90 9 450 -2 550 -17z"/>
<path d="M2420 4810 c-4 -3 -190 -371 -414 -817 l-406 -813 324 0 324 0 27 73
c15 39 36 92 46 116 11 24 19 50 19 57 0 8 3 14 8 15 4 0 121 1 260 1 204 1
255 -1 262 -12 5 -8 11 -41 15 -74 4 -34 9 -81 12 -106 3 -25 6 -51 6 -57 0
-10 120 -13 562 -13 l562 0 8 63 c4 34 9 71 10 82 2 11 6 43 9 70 4 28 8 61
11 75 2 14 7 48 10 75 3 28 10 85 16 128 l11 77 220 0 c204 0 219 -1 215 -17
-3 -10 -8 -40 -12 -68 -3 -27 -8 -66 -11 -85 -6 -46 -15 -109 -19 -140 -2 -14
-9 -65 -15 -115 -6 -49 -13 -102 -16 -117 l-6 -28 295 0 295 0 6 28 c3 15 8
47 11 72 10 77 36 274 40 300 2 14 6 46 9 72 3 26 8 62 11 80 17 124 26 189
30 227 3 23 7 55 9 70 3 14 8 51 11 81 3 30 8 62 10 70 2 8 6 42 10 75 3 33 8
71 10 85 2 14 11 79 20 145 8 66 17 129 19 140 4 21 20 163 21 180 0 6 -110 9
-288 10 -325 0 -302 6 -311 -81 -6 -54 -20 -161 -35 -269 -6 -38 -13 -97 -16
-130 -4 -33 -11 -64 -15 -69 -5 -5 -104 -9 -220 -10 l-211 -1 6 45 c3 25 8 61
10 80 3 19 7 51 9 70 3 19 8 54 11 78 3 23 7 60 10 82 28 204 28 200 14 201
-46 4 -571 3 -574 -1 -3 -5 -10 -46 -20 -120 -3 -25 -10 -76 -15 -115 -5 -38
-12 -92 -16 -120 -3 -27 -7 -61 -9 -75 -7 -48 -24 -175 -29 -215 -3 -22 -7
-56 -10 -75 -3 -19 -10 -73 -16 -120 -6 -47 -13 -96 -15 -110 -2 -14 -7 -50
-10 -80 -7 -61 -13 -112 -20 -150 -2 -14 -7 -52 -11 -85 -3 -33 -7 -61 -8 -62
-2 -2 -96 393 -121 507 -2 8 -15 62 -29 120 -13 58 -27 116 -30 130 -3 14 -21
93 -41 175 -19 83 -47 204 -62 270 -14 66 -28 122 -30 125 -5 6 -733 6 -743 0z
m334 -405 c3 -33 8 -69 10 -80 2 -11 7 -51 11 -90 9 -91 14 -132 20 -175 2
-19 7 -54 10 -77 3 -24 7 -60 10 -81 l6 -39 -156 -1 c-85 0 -155 3 -155 6 0 4
15 48 34 97 19 50 57 153 86 230 28 77 55 149 60 160 4 11 16 44 26 73 10 28
21 49 25 45 4 -5 10 -35 13 -68z"/>
<path d="M1885 3120 c-2 -3 -6 -26 -10 -50 -3 -25 -8 -52 -10 -60 -2 -8 -6
-37 -10 -65 -8 -72 -13 -106 -19 -140 -2 -16 -8 -50 -11 -75 -3 -25 -8 -56
-10 -70 -2 -14 -6 -43 -10 -65 -3 -23 -7 -52 -10 -65 -3 -14 -7 -50 -10 -80
-4 -30 -8 -62 -10 -70 -3 -8 -7 -35 -10 -59 -3 -23 -7 -55 -9 -70 -3 -14 -8
-46 -11 -71 -3 -25 -10 -70 -15 -100 -5 -30 -11 -77 -15 -105 -3 -27 -10 -75
-15 -105 -10 -59 -15 -96 -26 -175 -3 -27 -8 -59 -10 -70 -3 -11 -7 -45 -10
-75 l-6 -55 313 0 c173 0 319 4 326 8 6 4 11 15 11 25 -1 9 2 34 6 55 3 20 8
53 11 72 3 19 7 52 10 73 8 49 24 167 31 217 10 76 -6 71 202 71 301 1 384 14
512 80 85 44 159 109 209 186 39 57 41 59 37 27 -3 -19 -8 -52 -11 -74 -2 -22
-7 -56 -10 -75 -11 -82 -14 -107 -20 -150 -3 -25 -19 -147 -35 -272 -17 -125
-30 -231 -30 -237 0 -8 82 -11 260 -11 l260 0 1 23 c1 12 2 33 4 47 8 82 17
169 20 195 3 17 7 57 10 90 7 66 13 122 20 175 2 19 7 62 10 95 3 33 10 105
17 160 6 55 11 112 11 128 1 15 4 27 7 27 4 0 33 -96 64 -212 32 -117 62 -224
66 -238 5 -14 36 -130 71 -258 l63 -232 365 2 366 3 17 130 c10 72 20 153 23
180 3 28 8 61 10 75 2 14 6 43 9 65 12 90 17 131 21 155 2 14 7 50 10 80 3 30
10 82 15 115 11 75 18 128 25 185 2 25 7 63 11 85 12 83 15 106 29 215 3 19
12 89 21 155 8 66 17 136 20 155 l4 36 -260 0 c-292 0 -267 7 -275 -82 -4 -49
-12 -106 -20 -154 -3 -14 -7 -50 -10 -80 -3 -30 -8 -66 -10 -80 -2 -14 -9 -65
-15 -115 -6 -49 -13 -101 -15 -115 -2 -14 -6 -46 -9 -72 -21 -177 -32 -244
-39 -228 -6 16 -105 407 -113 450 -3 14 -9 39 -15 56 -5 17 -11 40 -13 50 -3
10 -18 75 -36 144 -17 69 -33 134 -35 145 -3 11 -9 34 -13 50 l-8 30 -365 0
-364 0 -13 -90 c-7 -49 -18 -121 -24 -159 l-10 -70 -15 45 c-50 145 -171 226
-393 260 -78 12 -1078 21 -1085 9z m836 -405 c68 -31 86 -101 49 -184 -44 -96
-125 -127 -317 -122 -26 1 -31 5 -28 21 2 10 11 70 20 132 23 160 23 161 35
168 21 13 204 1 241 -15z"/>
</g>
</svg>
